<svg viewBox="0 0 800 400" xmlns="http://www.w3.org/2000/svg">
  <path d="M50 180 C70 120, 120 90, 180 85 C220 82, 260 80, 300 75 C340 70, 380 68, 420 65 C460 62, 500 60, 540 65 C580 70, 620 80, 660 95 C700 110, 730 130, 750 155 C770 180, 775 200, 770 220 C765 240, 750 255, 730 265 C710 275, 685 280, 660 285 C635 290, 610 295, 585 300 C560 305, 535 310, 510 315 C485 320, 460 325, 435 330 C410 335, 385 340, 360 345 C335 350, 310 355, 285 350 C260 345, 235 335, 215 320 C195 305, 180 285, 170 265 C160 245, 155 225, 150 205 C145 185, 140 165, 135 145 C130 125, 125 105, 120 85 C115 65, 110 45, 105 25 C100 35, 95 45, 90 55 C85 65, 80 75, 75 85 C70 95, 65 105, 60 115 C55 125, 50 135, 48 145 C46 155, 46 165, 48 175 Z M320 150 C310 145, 300 140, 290 145 C280 150, 275 160, 280 170 C285 180, 295 185, 305 180 C315 175, 320 165, 315 155 Z" fill="black"/>
</svg>
